<svg width="42" height="42" viewBox="0 0 42 42" fill="none" xmlns="http://www.w3.org/2000/svg">
<path fill-rule="evenodd" clip-rule="evenodd" d="M21.2262 3.42834C11.759 3.42834 4.08441 11.1035 4.08441 20.5701C4.08441 30.0367 11.759 37.7118 21.2262 37.7118C30.6922 37.7118 38.3679 30.0361 38.3679 20.5701C38.3679 11.1041 30.6922 3.42834 21.2262 3.42834ZM21.2262 5.9996C29.2721 5.9996 35.7966 12.5241 35.7966 20.5701C35.7966 28.6161 29.2721 35.1406 21.2262 35.1406C13.1791 35.1406 6.65567 28.6167 6.65567 20.5701C6.65567 12.5235 13.1791 5.9996 21.2262 5.9996ZM16.043 17.0658C15.5405 16.6913 14.8262 16.7313 14.3688 17.1867C13.8656 17.6877 13.8639 18.5017 14.3649 19.0048L20.3148 24.9805L20.4591 25.1056C20.9632 25.481 21.68 25.4393 22.1368 24.9805L28.0867 19.0048L28.2109 18.8604C28.5833 18.3563 28.5402 17.6421 28.0828 17.1867L27.9384 17.0625C27.4343 16.6902 26.7201 16.7332 26.2647 17.1906L21.2241 22.25L16.1869 17.1906L16.043 17.0658Z" fill="white"/>
</svg>
